<svg xmlns="http://www.w3.org/2000/svg" viewBox="0 0 400 300" fill="none"><g transform="translate(200,148)"><g><path d="M0-105 L72-72 L90-18 L90 18 C90 72 54 117 0 135 C-54 117-90 72-90 18 L-90-18 L-72-72 Z" fill="#6366f1" /><path d="M0-105 L72-72 L90-18 L90 18 C90 72 54 117 0 135 C-54 117-90 72-90 18 L-90-18 L-72-72 Z" fill="#f43f5e" opacity="0.25" transform="translate(4,6)" /></g></g><g transform="translate(200,148)"><g><path d="M0-82 L54-54 L68-14 L68 14 C68 54 40 88 0 103 C-40 88-68 54-68 14 L-68-14 L-54-54 Z" fill="#ffffff" /></g></g><g transform="translate(200,152)"><g><rect x="-22" y="-44" width="44" height="56" rx="6" fill="#6366f1" /><rect x="-14" y="-44" width="28" height="18" rx="14" fill="none" stroke="#6366f1" stroke-width="5" /><rect x="-7" y="-18" width="14" height="8" rx="2" fill="#ffffff" /></g></g><g transform="translate(200,175)"><g><line x1="-18" y1="0" x2="18" y2="0" stroke="#DFD116" stroke-width="3" stroke-linecap="round" /><line x1="0" y1="-12" x2="0" y2="12" stroke="#DFD116" stroke-width="3" stroke-linecap="round" /><circle cx="0" cy="0" r="5" fill="#DFD116" /></g></g><g transform="translate(200,148)"><g><circle cx="0" cy="-60" r="5" fill="#DFD116" /></g></g><g transform="translate(112,80)"><g><circle cx="0" cy="0" r="4" fill="#DFD116" /></g></g><g transform="translate(288,80)"><g><circle cx="0" cy="0" r="4" fill="#DFD116" /></g></g><g transform="translate(310,148)"><g><rect x="0" y="-18" width="32" height="10" rx="3" fill="#f43f5e" opacity="0.5" /><rect x="0" y="-4" width="24" height="10" rx="3" fill="#f43f5e" opacity="0.35" /><rect x="0" y="10" width="28" height="10" rx="3" fill="#f43f5e" opacity="0.2" /></g></g><g transform="translate(58,148)"><g><rect x="-32" y="-18" width="32" height="10" rx="3" fill="#f43f5e" opacity="0.5" /><rect x="-24" y="-4" width="24" height="10" rx="3" fill="#f43f5e" opacity="0.35" /><rect x="-28" y="10" width="28" height="10" rx="3" fill="#f43f5e" opacity="0.2" /></g></g><g transform="translate(200,148)"><g><path d="M-90-18 L-72-72 L0-105 L72-72 L90-18" stroke="#334155" stroke-width="2" stroke-linejoin="round" fill="none" opacity="0.15" /></g></g></svg>