<svg width="264" height="320" viewBox="0 0 264 320" fill="none" xmlns="http://www.w3.org/2000/svg">
<rect y="188" width="264" height="132" rx="16" fill="black" fill-opacity="0.12"/>
<rect x="20" y="254" width="222" height="58" rx="16" fill="black" fill-opacity="0.2"/>
<g filter="url(#filter0_ii_3_14858)">
<rect x="34" y="286" width="194" height="22" rx="8" fill="black" fill-opacity="0.2"/>
<path fill-rule="evenodd" clip-rule="evenodd" d="M34 267V290C34 298.837 41.1634 306 50 306H212C220.837 306 228 298.837 228 290V267C228 274.732 221.732 281 214 281H48C40.268 281 34 274.732 34 267Z" fill="#A6815E"/>
<path fill-rule="evenodd" clip-rule="evenodd" d="M34 226H24V282C24 295.255 34.7452 306 48 306H214C227.255 306 238 295.255 238 282V226H228V282C228 289.732 221.732 296 214 296H48C40.268 296 34 289.732 34 282V226Z" fill="#9A7858"/>
<rect x="24" y="226" width="10" height="32" fill="black" fill-opacity="0.12"/>
<rect x="228" y="226" width="10" height="32" fill="black" fill-opacity="0.12"/>
</g>
<g filter="url(#filter1_ii_3_14858)">
<path d="M63 65C51.9543 65 43 56.0457 43 45V20C43 8.9543 51.9543 0 63 0H201C212.046 0 221 8.95431 221 20V45C221 56.0457 212.046 65 201 65H63Z" fill="#F9A8D4"/>
</g>
<g filter="url(#filter2_ii_3_14858)">
<path d="M63 175C51.9543 175 43 166.046 43 155V53C43 41.9543 51.9543 33 63 33H201C212.046 33 221 41.9543 221 53V155C221 166.046 212.046 175 201 175H63Z" fill="#F472B6"/>
</g>
<g filter="url(#filter3_ii_3_14858)">
<path d="M27 277C18.7157 277 12 270.284 12 262V238H251V262C251 270.284 244.284 277 236 277H27Z" fill="#F472B6"/>
</g>
<g filter="url(#filter4_ii_3_14858)">
<path d="M240.5 235C229.73 235 221 226.27 221 215.5V90H234.05C244.298 90 249.422 90 253.137 92.3986C254.925 93.5532 256.447 95.0752 257.601 96.8634C260 100.578 260 105.702 260 115.95V215.5C260 226.27 251.27 235 240.5 235Z" fill="#F9A8D4"/>
</g>
<g filter="url(#filter5_i_3_14858)">
<path d="M221 185C221 176.716 227.716 170 236 170H245C253.284 170 260 176.716 260 185V240C260 248.284 253.284 255 245 255H236C227.716 255 221 248.284 221 240V185Z" fill="#F472B6"/>
</g>
<g filter="url(#filter6_ii_3_14858)">
<path d="M23.5 235C12.7304 235 4 226.27 4 215.5V115.95C4 105.702 4 100.578 6.3986 96.8634C7.55321 95.0752 9.07519 93.5532 10.8634 92.3986C14.5781 90 19.7021 90 29.95 90H43V215.5C43 226.27 34.2696 235 23.5 235Z" fill="#F9A8D4"/>
</g>
<g filter="url(#filter7_i_3_14858)">
<path d="M4 185C4 176.716 10.7157 170 19 170H28C36.2843 170 43 176.716 43 185V240C43 248.284 36.2843 255 28 255H19C10.7157 255 4 248.284 4 240V185Z" fill="#F472B6"/>
</g>
<g filter="url(#filter8_i_3_14858)">
<path d="M51 242C46.5817 242 43 238.418 43 234V144C43 139.582 46.5817 136 51 136H213C217.418 136 221 139.582 221 144V234C221 238.418 217.418 242 213 242H51Z" fill="#F9A8D4"/>
</g>
<g filter="url(#filter9_ii_3_14858)">
<path d="M51 244C46.5817 244 43 240.418 43 236V207C43 202.582 46.5817 199 51 199H213C217.418 199 221 202.582 221 207V236C221 240.418 217.418 244 213 244H51Z" fill="#F472B6"/>
</g>
<defs>
<filter id="filter0_ii_3_14858" x="16" y="218" width="230" height="98" filterUnits="userSpaceOnUse" color-interpolation-filters="sRGB">
<feFlood flood-opacity="0" result="BackgroundImageFix"/>
<feBlend mode="normal" in="SourceGraphic" in2="BackgroundImageFix" result="shape"/>
<feColorMatrix in="SourceAlpha" type="matrix" values="0 0 0 0 0 0 0 0 0 0 0 0 0 0 0 0 0 0 127 0" result="hardAlpha"/>
<feOffset dx="8" dy="-8"/>
<feGaussianBlur stdDeviation="4"/>
<feComposite in2="hardAlpha" operator="arithmetic" k2="-1" k3="1"/>
<feColorMatrix type="matrix" values="0 0 0 0 0 0 0 0 0 0 0 0 0 0 0 0 0 0 0.25 0"/>
<feBlend mode="normal" in2="shape" result="effect1_innerShadow_3_14858"/>
<feColorMatrix in="SourceAlpha" type="matrix" values="0 0 0 0 0 0 0 0 0 0 0 0 0 0 0 0 0 0 127 0" result="hardAlpha"/>
<feOffset dx="-8" dy="8"/>
<feGaussianBlur stdDeviation="4"/>
<feComposite in2="hardAlpha" operator="arithmetic" k2="-1" k3="1"/>
<feColorMatrix type="matrix" values="0 0 0 0 1 0 0 0 0 1 0 0 0 0 1 0 0 0 0.25 0"/>
<feBlend mode="normal" in2="effect1_innerShadow_3_14858" result="effect2_innerShadow_3_14858"/>
</filter>
<filter id="filter1_ii_3_14858" x="33" y="-16" width="198" height="85" filterUnits="userSpaceOnUse" color-interpolation-filters="sRGB">
<feFlood flood-opacity="0" result="BackgroundImageFix"/>
<feBlend mode="normal" in="SourceGraphic" in2="BackgroundImageFix" result="shape"/>
<feColorMatrix in="SourceAlpha" type="matrix" values="0 0 0 0 0 0 0 0 0 0 0 0 0 0 0 0 0 0 127 0" result="hardAlpha"/>
<feOffset dx="10" dy="-16"/>
<feGaussianBlur stdDeviation="12"/>
<feComposite in2="hardAlpha" operator="arithmetic" k2="-1" k3="1"/>
<feColorMatrix type="matrix" values="0 0 0 0 0 0 0 0 0 0 0 0 0 0 0 0 0 0 0.25 0"/>
<feBlend mode="normal" in2="shape" result="effect1_innerShadow_3_14858"/>
<feColorMatrix in="SourceAlpha" type="matrix" values="0 0 0 0 0 0 0 0 0 0 0 0 0 0 0 0 0 0 127 0" result="hardAlpha"/>
<feOffset dx="-10" dy="4"/>
<feGaussianBlur stdDeviation="12"/>
<feComposite in2="hardAlpha" operator="arithmetic" k2="-1" k3="1"/>
<feColorMatrix type="matrix" values="0 0 0 0 1 0 0 0 0 1 0 0 0 0 1 0 0 0 0.25 0"/>
<feBlend mode="normal" in2="effect1_innerShadow_3_14858" result="effect2_innerShadow_3_14858"/>
</filter>
<filter id="filter2_ii_3_14858" x="43" y="-11" width="178" height="190" filterUnits="userSpaceOnUse" color-interpolation-filters="sRGB">
<feFlood flood-opacity="0" result="BackgroundImageFix"/>
<feBlend mode="normal" in="SourceGraphic" in2="BackgroundImageFix" result="shape"/>
<feColorMatrix in="SourceAlpha" type="matrix" values="0 0 0 0 0 0 0 0 0 0 0 0 0 0 0 0 0 0 127 0" result="hardAlpha"/>
<feOffset dy="-45"/>
<feGaussianBlur stdDeviation="22"/>
<feComposite in2="hardAlpha" operator="arithmetic" k2="-1" k3="1"/>
<feColorMatrix type="matrix" values="0 0 0 0 0 0 0 0 0 0 0 0 0 0 0 0 0 0 0.25 0"/>
<feBlend mode="normal" in2="shape" result="effect1_innerShadow_3_14858"/>
<feColorMatrix in="SourceAlpha" type="matrix" values="0 0 0 0 0 0 0 0 0 0 0 0 0 0 0 0 0 0 127 0" result="hardAlpha"/>
<feOffset dy="8"/>
<feGaussianBlur stdDeviation="2"/>
<feComposite in2="hardAlpha" operator="arithmetic" k2="-1" k3="1"/>
<feColorMatrix type="matrix" values="0 0 0 0 1 0 0 0 0 1 0 0 0 0 1 0 0 0 0.25 0"/>
<feBlend mode="normal" in2="effect1_innerShadow_3_14858" result="effect2_innerShadow_3_14858"/>
</filter>
<filter id="filter3_ii_3_14858" x="12" y="238" width="239" height="50" filterUnits="userSpaceOnUse" color-interpolation-filters="sRGB">
<feFlood flood-opacity="0" result="BackgroundImageFix"/>
<feBlend mode="normal" in="SourceGraphic" in2="BackgroundImageFix" result="shape"/>
<feColorMatrix in="SourceAlpha" type="matrix" values="0 0 0 0 0 0 0 0 0 0 0 0 0 0 0 0 0 0 127 0" result="hardAlpha"/>
<feOffset dy="12"/>
<feComposite in2="hardAlpha" operator="arithmetic" k2="-1" k3="1"/>
<feColorMatrix type="matrix" values="0 0 0 0 0 0 0 0 0 0 0 0 0 0 0 0 0 0 0.25 0"/>
<feBlend mode="normal" in2="shape" result="effect1_innerShadow_3_14858"/>
<feColorMatrix in="SourceAlpha" type="matrix" values="0 0 0 0 0 0 0 0 0 0 0 0 0 0 0 0 0 0 127 0" result="hardAlpha"/>
<feOffset dy="26"/>
<feGaussianBlur stdDeviation="5.5"/>
<feComposite in2="hardAlpha" operator="arithmetic" k2="-1" k3="1"/>
<feColorMatrix type="matrix" values="0 0 0 0 0 0 0 0 0 0 0 0 0 0 0 0 0 0 0.25 0"/>
<feBlend mode="normal" in2="effect1_innerShadow_3_14858" result="effect2_innerShadow_3_14858"/>
</filter>
<filter id="filter4_ii_3_14858" x="213" y="82" width="55" height="153" filterUnits="userSpaceOnUse" color-interpolation-filters="sRGB">
<feFlood flood-opacity="0" result="BackgroundImageFix"/>
<feBlend mode="normal" in="SourceGraphic" in2="BackgroundImageFix" result="shape"/>
<feColorMatrix in="SourceAlpha" type="matrix" values="0 0 0 0 0 0 0 0 0 0 0 0 0 0 0 0 0 0 127 0" result="hardAlpha"/>
<feOffset dx="8" dy="-8"/>
<feGaussianBlur stdDeviation="8"/>
<feComposite in2="hardAlpha" operator="arithmetic" k2="-1" k3="1"/>
<feColorMatrix type="matrix" values="0 0 0 0 0 0 0 0 0 0 0 0 0 0 0 0 0 0 0.15 0"/>
<feBlend mode="normal" in2="shape" result="effect1_innerShadow_3_14858"/>
<feColorMatrix in="SourceAlpha" type="matrix" values="0 0 0 0 0 0 0 0 0 0 0 0 0 0 0 0 0 0 127 0" result="hardAlpha"/>
<feOffset dx="-8" dy="-8"/>
<feGaussianBlur stdDeviation="8"/>
<feComposite in2="hardAlpha" operator="arithmetic" k2="-1" k3="1"/>
<feColorMatrix type="matrix" values="0 0 0 0 1 0 0 0 0 1 0 0 0 0 1 0 0 0 0.25 0"/>
<feBlend mode="normal" in2="effect1_innerShadow_3_14858" result="effect2_innerShadow_3_14858"/>
</filter>
<filter id="filter5_i_3_14858" x="221" y="154" width="39" height="101" filterUnits="userSpaceOnUse" color-interpolation-filters="sRGB">
<feFlood flood-opacity="0" result="BackgroundImageFix"/>
<feBlend mode="normal" in="SourceGraphic" in2="BackgroundImageFix" result="shape"/>
<feColorMatrix in="SourceAlpha" type="matrix" values="0 0 0 0 0 0 0 0 0 0 0 0 0 0 0 0 0 0 127 0" result="hardAlpha"/>
<feOffset dy="-16"/>
<feGaussianBlur stdDeviation="24"/>
<feComposite in2="hardAlpha" operator="arithmetic" k2="-1" k3="1"/>
<feColorMatrix type="matrix" values="0 0 0 0 0 0 0 0 0 0 0 0 0 0 0 0 0 0 0.25 0"/>
<feBlend mode="normal" in2="shape" result="effect1_innerShadow_3_14858"/>
</filter>
<filter id="filter6_ii_3_14858" x="-4" y="82" width="55" height="153" filterUnits="userSpaceOnUse" color-interpolation-filters="sRGB">
<feFlood flood-opacity="0" result="BackgroundImageFix"/>
<feBlend mode="normal" in="SourceGraphic" in2="BackgroundImageFix" result="shape"/>
<feColorMatrix in="SourceAlpha" type="matrix" values="0 0 0 0 0 0 0 0 0 0 0 0 0 0 0 0 0 0 127 0" result="hardAlpha"/>
<feOffset dx="8" dy="-8"/>
<feGaussianBlur stdDeviation="8"/>
<feComposite in2="hardAlpha" operator="arithmetic" k2="-1" k3="1"/>
<feColorMatrix type="matrix" values="0 0 0 0 0 0 0 0 0 0 0 0 0 0 0 0 0 0 0.15 0"/>
<feBlend mode="normal" in2="shape" result="effect1_innerShadow_3_14858"/>
<feColorMatrix in="SourceAlpha" type="matrix" values="0 0 0 0 0 0 0 0 0 0 0 0 0 0 0 0 0 0 127 0" result="hardAlpha"/>
<feOffset dx="-8" dy="-8"/>
<feGaussianBlur stdDeviation="8"/>
<feComposite in2="hardAlpha" operator="arithmetic" k2="-1" k3="1"/>
<feColorMatrix type="matrix" values="0 0 0 0 1 0 0 0 0 1 0 0 0 0 1 0 0 0 0.25 0"/>
<feBlend mode="normal" in2="effect1_innerShadow_3_14858" result="effect2_innerShadow_3_14858"/>
</filter>
<filter id="filter7_i_3_14858" x="4" y="154" width="39" height="101" filterUnits="userSpaceOnUse" color-interpolation-filters="sRGB">
<feFlood flood-opacity="0" result="BackgroundImageFix"/>
<feBlend mode="normal" in="SourceGraphic" in2="BackgroundImageFix" result="shape"/>
<feColorMatrix in="SourceAlpha" type="matrix" values="0 0 0 0 0 0 0 0 0 0 0 0 0 0 0 0 0 0 127 0" result="hardAlpha"/>
<feOffset dy="-16"/>
<feGaussianBlur stdDeviation="24"/>
<feComposite in2="hardAlpha" operator="arithmetic" k2="-1" k3="1"/>
<feColorMatrix type="matrix" values="0 0 0 0 0 0 0 0 0 0 0 0 0 0 0 0 0 0 0.25 0"/>
<feBlend mode="normal" in2="shape" result="effect1_innerShadow_3_14858"/>
</filter>
<filter id="filter8_i_3_14858" x="43" y="136" width="178" height="106" filterUnits="userSpaceOnUse" color-interpolation-filters="sRGB">
<feFlood flood-opacity="0" result="BackgroundImageFix"/>
<feBlend mode="normal" in="SourceGraphic" in2="BackgroundImageFix" result="shape"/>
<feColorMatrix in="SourceAlpha" type="matrix" values="0 0 0 0 0 0 0 0 0 0 0 0 0 0 0 0 0 0 127 0" result="hardAlpha"/>
<feOffset/>
<feGaussianBlur stdDeviation="16"/>
<feComposite in2="hardAlpha" operator="arithmetic" k2="-1" k3="1"/>
<feColorMatrix type="matrix" values="0 0 0 0 0 0 0 0 0 0 0 0 0 0 0 0 0 0 0.25 0"/>
<feBlend mode="normal" in2="shape" result="effect1_innerShadow_3_14858"/>
</filter>
<filter id="filter9_ii_3_14858" x="43" y="184" width="178" height="68" filterUnits="userSpaceOnUse" color-interpolation-filters="sRGB">
<feFlood flood-opacity="0" result="BackgroundImageFix"/>
<feBlend mode="normal" in="SourceGraphic" in2="BackgroundImageFix" result="shape"/>
<feColorMatrix in="SourceAlpha" type="matrix" values="0 0 0 0 0 0 0 0 0 0 0 0 0 0 0 0 0 0 127 0" result="hardAlpha"/>
<feOffset dy="-15"/>
<feGaussianBlur stdDeviation="10.5"/>
<feComposite in2="hardAlpha" operator="arithmetic" k2="-1" k3="1"/>
<feColorMatrix type="matrix" values="0 0 0 0 0 0 0 0 0 0 0 0 0 0 0 0 0 0 0.25 0"/>
<feBlend mode="normal" in2="shape" result="effect1_innerShadow_3_14858"/>
<feColorMatrix in="SourceAlpha" type="matrix" values="0 0 0 0 0 0 0 0 0 0 0 0 0 0 0 0 0 0 127 0" result="hardAlpha"/>
<feOffset dy="8"/>
<feGaussianBlur stdDeviation="4"/>
<feComposite in2="hardAlpha" operator="arithmetic" k2="-1" k3="1"/>
<feColorMatrix type="matrix" values="0 0 0 0 1 0 0 0 0 1 0 0 0 0 1 0 0 0 0.25 0"/>
<feBlend mode="normal" in2="effect1_innerShadow_3_14858" result="effect2_innerShadow_3_14858"/>
</filter>
</defs>
</svg>
